<mxfile host="Electron" agent="Mozilla/5.0 (Macintosh; Intel Mac OS X 10_15_7) AppleWebKit/537.36 (KHTML, like Gecko) draw.io/25.0.2 Chrome/128.0.6613.186 Electron/32.2.5 Safari/537.36" version="25.0.2">
  <diagram name="Page-1" id="3UO3U0JVVsDYoMMzFkWE">
    <mxGraphModel dx="1026" dy="694" grid="1" gridSize="10" guides="1" tooltips="1" connect="1" arrows="1" fold="1" page="1" pageScale="1" pageWidth="827" pageHeight="1169" math="0" shadow="0">
      <root>
        <mxCell id="0" />
        <mxCell id="1" parent="0" />
        <mxCell id="d_Frb1aYimTM2860M_bi-8" value="" style="rounded=1;whiteSpace=wrap;html=1;fillColor=#dae8fc;strokeColor=#6c8ebf;" vertex="1" parent="1">
          <mxGeometry x="20" y="33.19999999999999" width="210" height="243.6" as="geometry" />
        </mxCell>
        <mxCell id="d_Frb1aYimTM2860M_bi-6" value="" style="rounded=1;whiteSpace=wrap;html=1;fillColor=#dae8fc;strokeColor=#6c8ebf;" vertex="1" parent="1">
          <mxGeometry x="680" y="30" width="215.52" height="250" as="geometry" />
        </mxCell>
        <mxCell id="d_Frb1aYimTM2860M_bi-1" value="" style="image;sketch=0;aspect=fixed;html=1;points=[];align=center;fontSize=12;image=img/lib/mscae/Docker.svg;" vertex="1" parent="1">
          <mxGeometry x="762.76" y="20" width="50" height="41" as="geometry" />
        </mxCell>
        <mxCell id="d_Frb1aYimTM2860M_bi-4" value="" style="shape=image;verticalLabelPosition=bottom;labelBackgroundColor=default;verticalAlign=top;aspect=fixed;imageAspect=0;image=https://seeklogo.com/images/S/streamlit-logo-1A3B208AE4-seeklogo.com.png;" vertex="1" parent="1">
          <mxGeometry x="749.5" y="131.16" width="76.51" height="41.57" as="geometry" />
        </mxCell>
        <mxCell id="d_Frb1aYimTM2860M_bi-32" style="edgeStyle=orthogonalEdgeStyle;rounded=0;orthogonalLoop=1;jettySize=auto;html=1;entryX=1;entryY=0.5;entryDx=0;entryDy=0;" edge="1" parent="1" source="d_Frb1aYimTM2860M_bi-7" target="d_Frb1aYimTM2860M_bi-8">
          <mxGeometry relative="1" as="geometry" />
        </mxCell>
        <mxCell id="d_Frb1aYimTM2860M_bi-7" value="" style="rounded=1;whiteSpace=wrap;html=1;fillColor=#dae8fc;strokeColor=#6c8ebf;" vertex="1" parent="1">
          <mxGeometry x="287.24" y="30" width="215.52" height="250" as="geometry" />
        </mxCell>
        <mxCell id="d_Frb1aYimTM2860M_bi-9" value="" style="image;sketch=0;aspect=fixed;html=1;points=[];align=center;fontSize=12;image=img/lib/mscae/Docker.svg;" vertex="1" parent="1">
          <mxGeometry x="370" y="20" width="50" height="41" as="geometry" />
        </mxCell>
        <mxCell id="d_Frb1aYimTM2860M_bi-10" value="" style="image;sketch=0;aspect=fixed;html=1;points=[];align=center;fontSize=12;image=img/lib/mscae/Docker.svg;" vertex="1" parent="1">
          <mxGeometry x="90" y="20" width="50" height="41" as="geometry" />
        </mxCell>
        <mxCell id="d_Frb1aYimTM2860M_bi-13" value="" style="shape=image;verticalLabelPosition=bottom;labelBackgroundColor=default;verticalAlign=top;aspect=fixed;imageAspect=0;image=https://d3uyj2gj5wa63n.cloudfront.net/wp-content/uploads/2021/02/fastapi-logo.png;" vertex="1" parent="1">
          <mxGeometry x="313.5" y="122.55000000000003" width="163" height="58.79" as="geometry" />
        </mxCell>
        <mxCell id="d_Frb1aYimTM2860M_bi-17" value="" style="strokeWidth=2;html=1;shape=mxgraph.flowchart.database;whiteSpace=wrap;" vertex="1" parent="1">
          <mxGeometry x="95" y="140" width="60" height="60" as="geometry" />
        </mxCell>
        <mxCell id="d_Frb1aYimTM2860M_bi-16" value="" style="shape=image;verticalLabelPosition=bottom;labelBackgroundColor=default;verticalAlign=top;aspect=fixed;imageAspect=0;image=https://brandlogos.net/wp-content/uploads/2021/11/postgresql-logo.png;" vertex="1" parent="1">
          <mxGeometry x="60" y="114.94" width="74" height="74" as="geometry" />
        </mxCell>
        <mxCell id="d_Frb1aYimTM2860M_bi-19" value="" style="rounded=1;whiteSpace=wrap;html=1;fillColor=#dae8fc;strokeColor=#6c8ebf;" vertex="1" parent="1">
          <mxGeometry x="306" y="440" width="215.52" height="140" as="geometry" />
        </mxCell>
        <mxCell id="d_Frb1aYimTM2860M_bi-20" value="" style="image;sketch=0;aspect=fixed;html=1;points=[];align=center;fontSize=12;image=img/lib/mscae/Docker.svg;" vertex="1" parent="1">
          <mxGeometry x="388.76" y="430" width="50" height="41" as="geometry" />
        </mxCell>
        <mxCell id="d_Frb1aYimTM2860M_bi-26" style="edgeStyle=orthogonalEdgeStyle;rounded=0;orthogonalLoop=1;jettySize=auto;html=1;" edge="1" parent="1" source="d_Frb1aYimTM2860M_bi-22" target="d_Frb1aYimTM2860M_bi-19">
          <mxGeometry relative="1" as="geometry" />
        </mxCell>
        <mxCell id="d_Frb1aYimTM2860M_bi-30" style="edgeStyle=orthogonalEdgeStyle;rounded=0;orthogonalLoop=1;jettySize=auto;html=1;entryX=0.5;entryY=1;entryDx=0;entryDy=0;" edge="1" parent="1" source="d_Frb1aYimTM2860M_bi-22" target="d_Frb1aYimTM2860M_bi-7">
          <mxGeometry relative="1" as="geometry">
            <Array as="points">
              <mxPoint x="164" y="360" />
              <mxPoint x="395" y="360" />
            </Array>
          </mxGeometry>
        </mxCell>
        <mxCell id="d_Frb1aYimTM2860M_bi-22" value="" style="fontColor=#0066CC;verticalAlign=top;verticalLabelPosition=bottom;labelPosition=center;align=center;html=1;outlineConnect=0;fillColor=#CCCCCC;strokeColor=#6881B3;gradientColor=none;gradientDirection=north;strokeWidth=2;shape=mxgraph.networks.virtual_pc;" vertex="1" parent="1">
          <mxGeometry x="106.75" y="467" width="115" height="85" as="geometry" />
        </mxCell>
        <mxCell id="d_Frb1aYimTM2860M_bi-23" value="" style="verticalLabelPosition=bottom;html=1;verticalAlign=top;align=center;strokeColor=none;fillColor=#00BEF2;shape=mxgraph.azure.user;" vertex="1" parent="1">
          <mxGeometry x="86.5" y="520" width="47.5" height="50" as="geometry" />
        </mxCell>
        <mxCell id="d_Frb1aYimTM2860M_bi-24" value="" style="shape=image;verticalLabelPosition=bottom;labelBackgroundColor=default;verticalAlign=top;aspect=fixed;imageAspect=0;image=https://ai-infrastructure.org/wp-content/uploads/2022/08/mlFlow-Logo.png;" vertex="1" parent="1">
          <mxGeometry x="345.75" y="487" width="136.01" height="48" as="geometry" />
        </mxCell>
        <mxCell id="d_Frb1aYimTM2860M_bi-27" value="Train model" style="text;html=1;align=center;verticalAlign=middle;whiteSpace=wrap;rounded=0;" vertex="1" parent="1">
          <mxGeometry x="230" y="520" width="60" height="30" as="geometry" />
        </mxCell>
        <mxCell id="d_Frb1aYimTM2860M_bi-28" style="edgeStyle=orthogonalEdgeStyle;rounded=0;orthogonalLoop=1;jettySize=auto;html=1;exitX=0;exitY=0.25;exitDx=0;exitDy=0;" edge="1" parent="1" source="d_Frb1aYimTM2860M_bi-19">
          <mxGeometry relative="1" as="geometry">
            <mxPoint x="232" y="520" as="sourcePoint" />
            <mxPoint x="230" y="475" as="targetPoint" />
          </mxGeometry>
        </mxCell>
        <mxCell id="d_Frb1aYimTM2860M_bi-29" value="Model downloaded" style="text;html=1;align=center;verticalAlign=middle;whiteSpace=wrap;rounded=0;" vertex="1" parent="1">
          <mxGeometry x="240" y="440" width="60" height="30" as="geometry" />
        </mxCell>
        <mxCell id="d_Frb1aYimTM2860M_bi-31" value="Manualy updated" style="text;html=1;align=center;verticalAlign=middle;whiteSpace=wrap;rounded=0;" vertex="1" parent="1">
          <mxGeometry x="90" y="380" width="60" height="30" as="geometry" />
        </mxCell>
        <mxCell id="d_Frb1aYimTM2860M_bi-33" value="Insert" style="text;html=1;align=center;verticalAlign=middle;whiteSpace=wrap;rounded=0;" vertex="1" parent="1">
          <mxGeometry x="227.24" y="158.94" width="60" height="30" as="geometry" />
        </mxCell>
        <mxCell id="d_Frb1aYimTM2860M_bi-34" value="Get" style="text;html=1;align=center;verticalAlign=middle;whiteSpace=wrap;rounded=0;" vertex="1" parent="1">
          <mxGeometry x="227.24" y="84.94" width="60" height="30" as="geometry" />
        </mxCell>
        <mxCell id="d_Frb1aYimTM2860M_bi-35" style="edgeStyle=orthogonalEdgeStyle;rounded=0;orthogonalLoop=1;jettySize=auto;html=1;exitX=0.986;exitY=0.41;exitDx=0;exitDy=0;exitPerimeter=0;entryX=-0.006;entryY=0.405;entryDx=0;entryDy=0;entryPerimeter=0;" edge="1" parent="1">
          <mxGeometry relative="1" as="geometry">
            <mxPoint x="230.05999999999995" y="117.07600000000002" as="sourcePoint" />
            <mxPoint x="285.94687999999996" y="117.25000000000006" as="targetPoint" />
            <Array as="points">
              <mxPoint x="253" y="117" />
              <mxPoint x="280" y="118" />
            </Array>
          </mxGeometry>
        </mxCell>
        <mxCell id="d_Frb1aYimTM2860M_bi-36" style="edgeStyle=orthogonalEdgeStyle;rounded=0;orthogonalLoop=1;jettySize=auto;html=1;exitX=0.986;exitY=0.41;exitDx=0;exitDy=0;exitPerimeter=0;" edge="1" parent="1">
          <mxGeometry relative="1" as="geometry">
            <mxPoint x="509.99999999999994" y="122.54600000000002" as="sourcePoint" />
            <mxPoint x="670" y="123" as="targetPoint" />
            <Array as="points">
              <mxPoint x="532.94" y="122.47" />
              <mxPoint x="559.94" y="123.47" />
            </Array>
          </mxGeometry>
        </mxCell>
        <mxCell id="d_Frb1aYimTM2860M_bi-37" style="edgeStyle=orthogonalEdgeStyle;rounded=0;orthogonalLoop=1;jettySize=auto;html=1;entryX=1;entryY=0.5;entryDx=0;entryDy=0;" edge="1" parent="1">
          <mxGeometry relative="1" as="geometry">
            <mxPoint x="660" y="165" as="sourcePoint" />
            <mxPoint x="510" y="165" as="targetPoint" />
          </mxGeometry>
        </mxCell>
        <mxCell id="d_Frb1aYimTM2860M_bi-38" value="Possibile to insert data to DB" style="text;html=1;align=center;verticalAlign=middle;whiteSpace=wrap;rounded=0;" vertex="1" parent="1">
          <mxGeometry x="531.52" y="172.73" width="118.48" height="30" as="geometry" />
        </mxCell>
        <mxCell id="d_Frb1aYimTM2860M_bi-39" value="Get predictions and data from DB" style="text;html=1;align=center;verticalAlign=middle;whiteSpace=wrap;rounded=0;" vertex="1" parent="1">
          <mxGeometry x="521.52" y="80" width="128.48" height="30" as="geometry" />
        </mxCell>
      </root>
    </mxGraphModel>
  </diagram>
</mxfile>
